<svg id="Layer_1" data-name="Layer 1" xmlns="http://www.w3.org/2000/svg" viewBox="0 0 135.65 84.81"><defs><style>.cls-1{fill:#101112;}</style></defs><g id="Unnamed_Symbol" data-name="Unnamed Symbol"><path class="cls-1" d="M31.35,71.22c-.14-.26-.35-.69-.63-1.3L10.93,25.48Q9,21.1,5.37,21.1c-.22,0-.38-.23-.47-.7A3.72,3.72,0,0,1,4.9,19c.09-.47.25-.7.47-.7,2.22.12,4.89.19,8,.19s5.81-.07,8-.19c.23,0,.38.23.47.7a3.72,3.72,0,0,1,0,1.41c-.09.47-.24.7-.47.7-2.09,0-3.44.35-4.06,1s-.59,1.8.09,3.35L33.18,60.64h.41l6.88-15.15-8.8-19.74A11.08,11.08,0,0,0,30.07,23a5.84,5.84,0,0,0-.78-.79,4.61,4.61,0,0,0-3.06-1.15c-.23,0-.39-.23-.47-.7a3.72,3.72,0,0,1,0-1.41c.08-.47.24-.7.47-.7,2.21.12,4.86.19,7.93.19s5.68-.07,7.9-.19c.22,0,.38.23.47.7a3.72,3.72,0,0,1,0,1.41c-.09.47-.25.7-.47.7-2.07,0-3.4.35-4,1s-.56,1.8.12,3.35L43.27,37h.37l5-11.15c.73-1.6.82-2.78.26-3.56s-1.77-1.16-3.66-1.16c-.23,0-.39-.23-.49-.7a3.35,3.35,0,0,1,0-1.41c.1-.47.26-.7.49-.7,2,.12,4.42.19,7.22.19s5.2-.07,7.21-.19c.23,0,.38.23.45.7a4.17,4.17,0,0,1,0,1.41c-.09.47-.24.7-.44.7a11.19,11.19,0,0,0-4.61.82,5,5,0,0,0-2.53,2.46L45.08,41l8.73,19.6h.37L69.94,25.82c.73-1.65.83-2.85.32-3.59s-1.71-1.13-3.57-1.13c-.23,0-.39-.23-.47-.7a3.72,3.72,0,0,1,0-1.41c.08-.47.24-.7.47-.7,1.86.12,4.1.19,6.72.19s4.86-.07,6.73-.19c.22,0,.39.23.49.7a3.35,3.35,0,0,1,0,1.41c-.1.47-.27.7-.49.7a8.68,8.68,0,0,0-4,.82,5.14,5.14,0,0,0-2.32,2.46L53.39,69.92c-.25.59-.45,1-.6,1.28s-.28.4-.38.4-.22-.13-.34-.38-.33-.69-.61-1.3L42.21,49.41h-.34L32.65,69.92c-.23.51-.42.92-.57,1.22s-.27.46-.37.46S31.48,71.47,31.35,71.22Z"/><path class="cls-1" d="M116.12,70.33a25.27,25.27,0,0,1-7.67-5,68.49,68.49,0,0,1-8.24-9.44,72.82,72.82,0,0,0-4.74-6,6.47,6.47,0,0,0-2.61-1.8,15.43,15.43,0,0,0-4-.37H82V63.89q0,4.55,9.64,4.54c.27,0,.46.23.56.68a2.93,2.93,0,0,1,0,1.38q-.17.69-.54.69-5.52-.27-11.83-.27C75,70.91,71,71,68,71.18c-.28,0-.46-.23-.55-.69a3.37,3.37,0,0,1,0-1.38c.1-.45.28-.68.53-.68q8.49,0,8.5-4.54V25.08a3.41,3.41,0,0,0-2.19-3.2,16,16,0,0,0-6.73-1.07c-.28,0-.46-.23-.56-.68a3,3,0,0,1,0-1.4c.12-.47.3-.71.55-.71q4.61.23,11.34.23c1.13,0,2.26,0,3.38,0l3.38-.08c2.54-.07,4.8-.11,6.76-.11a33.86,33.86,0,0,1,11.35,1.68A15.25,15.25,0,0,1,111,24.61a12.3,12.3,0,0,1,2.48,7.72q0,6-3.2,9.52t-9.57,4.52q.9,3,5.47,8.33a108.85,108.85,0,0,0,9.26,9.58A30.54,30.54,0,0,0,121.78,69a12,12,0,0,0,5.56,1.63c.2,0,.3.21.3.62a.57.57,0,0,1-.08.29.31.31,0,0,1-.3.14,22.19,22.19,0,0,1-2.49.19A23,23,0,0,1,116.12,70.33ZM102.78,42.18q4.53-3.3,4.54-9.85A9.76,9.76,0,0,0,105.09,26a14.14,14.14,0,0,0-6.33-4.23,27.49,27.49,0,0,0-9.47-1.49,23.74,23.74,0,0,0-5.57.46c-1.14.31-1.72.8-1.72,1.48V43.73c0,.62.57,1.06,1.7,1.34a27.13,27.13,0,0,0,5.59.4Q98.25,45.47,102.78,42.18Z"/></g><path class="cls-1" d="M29.87,24.08l-2.52-.88Z"/></svg>